<?xml version="1.0" encoding="utf-8"?>
<!-- Generator: Adobe Illustrator 16.0.4, SVG Export Plug-In . SVG Version: 6.00 Build 0)  -->
<!DOCTYPE svg PUBLIC "-//W3C//DTD SVG 1.1//EN" "http://www.w3.org/Graphics/SVG/1.1/DTD/svg11.dtd">
<svg version="1.1" id="gr_x5F_icon22_x5F_twigPack" xmlns="http://www.w3.org/2000/svg" xmlns:xlink="http://www.w3.org/1999/xlink"
	 x="0px" y="0px" width="250px" height="250px" viewBox="0 0 250 250" enable-background="new 0 0 250 250" xml:space="preserve">
<g id="gr_x5F_big_64_">
	<path id="gr_269_" fill="#F3BA48" d="M237.612,172.737c0,9.535-6.756,21.242-15.015,26.008l-82.583,47.68
		c-8.258,4.768-21.771,4.768-30.029,0l-82.583-47.68c-8.259-4.766-15.015-16.473-15.015-26.008V77.378
		c0-9.535,6.756-21.241,15.015-26.007l82.583-47.68c8.258-4.769,21.771-4.769,30.029,0l82.583,47.68
		c8.259,4.766,15.015,16.472,15.015,26.007V172.737z"/>
	<path fill="none" stroke="#FFFFFF" stroke-width="10" stroke-linejoin="round" stroke-miterlimit="10" d="M124.163,196.45
		l-61.412-36.424l0.837-71.396l62.249-34.973l61.412,36.423l-0.838,71.396L124.163,196.45z M125.837,128.944v120.742
		 M125.837,128.944l107.83-69.69 M125.837,128.944L15.552,61.403 M125.837,53.658V0 M17.899,190.628l44.853-30.602 M186.411,161.478
		l45.45,30.737"/>
</g>
</svg>
